# xmcd
#
# Track frame offsets:
#	150
#	16311
#	39734
#	68573
#	93287
#	115409
#	153911
#	178017
#	202186
#
# Disc length: 3140 seconds
#
# Revision: 1
# Processed by: cddbd v1.5.2PL0 Copyright (c) Steve Scherf et al.
# Submitted via: audiograbber 1.83.01
#
DISCID=730c4209
DTITLE=Tharsys - Under her dead hands
DYEAR=2010
DGENRE=Gothic
TTITLE0=The price of empathy
TTITLE1=Under her dead hands
TTITLE2=Coldblood
TTITLE3=Seven
TTITLE4=Infernal love
TTITLE5=Master of humanity
TTITLE6=Halls of desolation
TTITLE7=Black
TTITLE8=Devilseed
EXTD=
EXTT0=
EXTT1=
EXTT2=
EXTT3=
EXTT4=
EXTT5=
EXTT6=
EXTT7=
EXTT8=
PLAYORDER=
